<svg xmlns="http://www.w3.org/2000/svg" xml:space="preserve" width="auto" height="550px" version="1.1"
    style="shape-rendering:geometricPrecision; text-rendering:geometricPrecision; image-rendering:optimizeQuality; fill-rule:evenodd; clip-rule:evenodd"
    viewBox="0 0 2816.26 3543.67" xmlns:xlink="http://www.w3.org/1999/xlink"
    xmlns:xodm="http://www.corel.com/coreldraw/odm/2003">
    <!-- Creator: Razopy -->
    <defs>
        <style>


            @keyframes moveUpDown {
                0% {
                    transform: translateY(0);
                }

                50% {
                    transform: translateY(20px);
                }

                100% {
                    transform: translateY(0);
                }
            }

            #Layer_x0020_1 {
                animation: moveUpDown 2s infinite;
            }

            #movingCircle1 {
                animation: moveCircleAlongPath1 .5s infinite;
            }

            #movingCircle2 {
                animation: moveCircleAlongPath2 1s infinite;
            }

            #movingCircle3 {
                animation: moveCircleAlongPath3 1.5s infinite;
            }

            #movingCircle4 {
                animation: moveCircleAlongPath4 2s infinite;
            }

            #movingCircle5 {
                animation: moveCircleAlongPath4 3s infinite;
            }

            @keyframes moveCircleAlongPath1 {
                0% {
                    transform: translate(1895px, 2450px);
                }

                25% {
                    transform: translate(1895px, 2450px);
                }

                50% {
                    transform: translate(1895px, 1870px);
                }

                75% {
                    transform: translate(1965px, 1830px);
                }

                100% {
                    transform: translate(1965px, 1548px);
                }
            }

            @keyframes moveCircleAlongPath2 {
                0% {
                    transform: translate(1895px, 2450px);
                }

                25% {
                    transform: translate(1895px, 2450px);
                }

                50% {
                    transform: translate(1895px, 1870px);
                }

                75% {
                    transform: translate(1965px, 1830px);
                }

                100% {
                    transform: translate(1965px, 1548px);
                }
            }

            @keyframes moveCircleAlongPath3 {
                0% {
                    transform: translate(1895px, 2450px);
                }

                25% {
                    transform: translate(1895px, 2450px);
                }

                50% {
                    transform: translate(1895px, 1870px);
                }

                75% {
                    transform: translate(1965px, 1830px);
                }

                100% {
                    transform: translate(1965px, 1548px);
                }
            }

            @keyframes moveCircleAlongPath4 {
                0% {
                    transform: translate(1895px, 2450px);
                }

                25% {
                    transform: translate(1895px, 2450px);
                }

                50% {
                    transform: translate(1895px, 1870px);
                }

                75% {
                    transform: translate(1965px, 1830px);
                }

                100% {
                    transform: translate(1965px, 1548px);
                }
            }

            @keyframes moveCircleAlongPath5 {
                0% {
                    transform: translate(1895px, 2450px);
                }

                25% {
                    transform: translate(1895px, 2450px);
                }

                50% {
                    transform: translate(1895px, 1870px);
                }

                75% {
                    transform: translate(1965px, 1830px);
                }

                100% {
                    transform: translate(1965px, 1548px);
                }
            }

            .circles-left {
                fill: #fbff00;
                animation: blink1 1s infinite;
            }

            @keyframes blink1 {
                0% {
                    opacity: 1;
                }

                20% {
                    opacity: 0;
                }

                40% {
                    opacity: 1;
                }

                60% {
                    opacity: 0;
                }

                80% {
                    opacity: 1;
                }

                100% {
                    opacity: 0;
                }
            }

            .circles-right {
                fill: #fbff00;
                animation: blink2 1s infinite;
            }

            @keyframes blink2 {
                0% {
                    opacity: 0;
                }

                10% {
                    opacity: 0;
                }

                20% {
                    opacity: 0;
                }

                30% {
                    opacity: 1;
                }

                40% {
                    opacity: 0;
                }

                50% {
                    opacity: 1;
                }

                60% {
                    opacity: 0;
                }

                70% {
                    opacity: 0;
                }

                80% {
                    opacity: 1;
                }

                90% {
                    opacity: 0;
                }

                100% {
                    opacity: 1;
                }
            }


            .lightbeam {
                fill: #fbff00;
                animation: lightbeam 1s infinite;
            }

            @keyframes lightbeam {
                0% {
                    opacity: 0;
                }

                50% {
                    opacity: 1;
                }

                100% {
                    opacity: 0;
                }
            }

            .fil6 {
                fill: #2F3F75
            }

            .fil1 {
                fill: #3F6AA9
            }

            .fil2 {
                fill: #6097D0
            }

            .fil7 {
                fill: #9ABFE6
            }

            .fil0 {
                fill: #C2DBF0
            }

            .fil3 {
                fill: #DFEEFB
            }

            .fil5 {
                fill: #FCFDFE
            }

            .fil4 {
                fill: #FEFEFE
            }
        </style>
    </defs>
    <g id="Layer_x0020_1">
        <metadata id="CorelCorpID_0Corel-Layer"></metadata>
        <path class="fil0"
            d="M2246.81 2334.13l-260.15 -150.21c-15.97,-9.22 -13.96,-25.32 4.47,-35.97l251.21 -145.04c18.45,-10.64 46.32,-11.8 62.28,-2.57l260.18 150.2c15.97,9.21 13.95,25.31 -4.47,35.97l-108.71 62.77 94.69 56.76c8.75,5.26 19.67,5.32 28.46,0.16l220.06 -128.72c3.53,-2.04 5.57,-5.68 5.5,-9.76 -0.08,-4.07 -2.27,-7.61 -5.82,-9.54l-293.31 -157.06 7.51 -14.04 293.3 157.06c8.73,4.67 14.05,13.38 14.24,23.28 0.18,9.91 -4.84,18.8 -13.39,23.79l-220.06 128.7c-6.83,4.01 -14.49,6.01 -22.14,6.01l0.01 0.02c-7.82,0 -15.61,-2.09 -22.55,-6.25l-102.27 -61.31 -126.73 73.17c-18.45,10.65 -46.32,11.81 -62.3,2.58l-0.01 0zm-1740.75 449.14c-9.34,0 -18.65,-2.41 -26.95,-7.23l-164.16 -95.26c-5.59,-3.25 -8.91,-9.05 -8.91,-15.5 0.01,-6.44 3.33,-12.21 8.92,-15.46l79.01 -45.83 -83.17 -48.02 -70.15 45.35c-6.03,3.9 -12.88,5.85 -19.76,5.85l0.01 0.06c-6.17,0 -12.35,-1.58 -17.93,-4.75l-193.54 -109.58c-5.88,-3.31 -9.39,-9.34 -9.42,-16.08 -0.03,-6.75 3.44,-12.79 9.26,-16.17l482.75 -279.25c27.69,-16.02 62.11,-15.99 89.8,-0.01l542.21 313.38 303.76 -175.39c23.76,-13.71 59.65,-15.2 80.24,-3.32l562.28 320.61c20.56,11.88 17.98,32.63 -5.76,46.34l-323.54 186.78c-23.74,13.7 -59.66,15.21 -80.23,3.34l-137.49 -78.4 -96.8 61.34c-3.63,2.31 -3.95,5.9 -3.92,7.34 0.03,1.42 0.52,4.99 4.23,7.15l271.71 156.02c7.69,4.44 12.26,12.36 12.21,21.23 -0.03,8.89 -4.64,16.78 -12.37,21.15l-244.23 137.73c-4.08,2.32 -4.51,6.22 -4.51,7.79 0.02,1.57 0.48,5.47 4.59,7.74l539.64 300.38c12.83,7.15 28.63,6.86 41.21,-0.76l205.19 -126.16c1.63,-0.99 1.86,-2.52 1.86,-3.33 -0.01,-0.67 -0.2,-2.3 -1.88,-3.33l-121.6 -73.92 -124.17 71.7c-18.44,10.64 -46.32,11.8 -62.28,2.57l-260.16 -150.2c-15.97,-9.21 -13.97,-25.33 4.47,-35.97l251.21 -145.04c18.45,-10.65 46.34,-11.79 62.28,-2.58l260.16 150.2c15.99,9.22 13.97,25.31 -4.47,35.97l-111.33 64.28 114.16 69.39c5.95,3.61 9.5,9.94 9.5,16.88 0.03,6.96 -3.49,13.29 -9.42,16.94l-205.22 126.18c-9.06,5.5 -19.33,8.23 -29.57,8.23l-0.03 0.02c-9.54,0 -19.08,-2.38 -27.68,-7.15l-539.63 -300.38c-7.94,-4.41 -12.72,-12.5 -12.76,-21.59 -0.03,-9.1 4.69,-17.21 12.61,-21.72l244.22 -137.71c3.87,-2.19 4.29,-5.87 4.29,-7.35 0.02,-1.49 -0.39,-5.18 -4.23,-7.4l-271.7 -156.02c-7.47,-4.29 -12.03,-12 -12.21,-20.62 -0.19,-8.62 4.04,-16.51 11.32,-21.13l89.66 -56.8 -179.5 -102.36 -113.06 65.39c-16.63,9.62 -37.25,9.57 -53.86,-0.08l-269.34 -155.55c-11.61,-6.75 -26.04,-6.81 -37.7,-0.18l-321.54 183.23c-8.2,4.67 -17.39,7.01 -26.58,7.01l0 0.01zm-96.19 -170.1l-86.93 50.42 -0.98 1.71 0.98 1.7 164.18 95.28c11.58,6.7 26.01,6.74 37.63,0.13l321.56 -183.23c16.57,-9.42 37.08,-9.33 53.55,0.23l269.34 155.56c11.7,6.82 26.21,6.84 37.9,0.06l105.02 -60.73 -213.62 -121.81c-20.55,-11.86 -17.99,-32.61 5.77,-46.31l3.85 -2.22 -534.25 -308.79c-22.77,-13.16 -51.08,-13.16 -73.89,0l-482.75 279.22c-1.16,0.69 -1.33,1.75 -1.33,2.32 0,0.57 0.19,1.66 1.37,2.31l193.54 109.58c6.68,3.77 14.78,3.56 21.21,-0.62l63.31 -40.95 -82.57 -47.67c-15.98,-9.21 -13.96,-25.31 4.47,-35.96l251.22 -145.04c18.43,-10.66 46.32,-11.82 62.29,-2.58l260.16 150.22c15.97,9.21 13.97,25.31 -4.48,35.95l-251.2 145.04c-18.45,10.66 -46.34,11.81 -62.28,2.59l-0.02 0 -63.05 -36.41z">
        </path>
        <path class="fil1"
            d="M2651.09 2036.14l0 0 0 -112.41 -252.05 -0.16 -87.13 -50.31c-19.99,-11.54 -54.91,-10.08 -78.01,3.25l-81.27 46.93 -252.29 -0.14 0 115.61c-0.56,7.81 3.79,15.35 13.39,20.89l325.78 188.09c19.99,11.56 54.92,10.1 78.02,-3.23l314.56 -181.61c13.33,-7.69 19.73,-17.64 18.98,-26.91l0.02 0z">
        </path>
        <path class="fil1"
            d="M2275.72 1865.55c-14.62,0.36 -29.83,4.05 -41.82,10.97l-81.27 46.92 -252.28 -0.13 0 115.61c-0.56,7.81 3.79,15.35 13.39,20.89l325.78 188.09c9.62,5.54 22.67,8.07 36.19,7.73l0 -390.08 0.01 0z">
        </path>
        <path class="fil2"
            d="M1928.89 1923.32l-28.54 -0.02 0 115.61c-0.56,7.81 3.79,15.35 13.39,20.89l15.13 8.76 0 -145.24 0.02 0z">
        </path>
        <path class="fil2" d="M2244.55 2250.37c17.23,7.38 42.19,6.97 62.36,-0.72l0 -131.25 -62.36 0 0 131.97z"></path>
        <path class="fil3"
            d="M2239.54 2132.72l-325.79 -188.1c-20,-11.54 -17.49,-31.7 5.59,-45.03l314.56 -181.61c23.1,-13.34 58.02,-14.79 78.02,-3.24l325.78 188.1c19.99,11.54 17.48,31.7 -5.58,45.03l-314.57 181.61c-23.09,13.34 -58,14.78 -78.01,3.24z">
        </path>
        <path class="fil2"
            d="M2245.4 2098.86l-273.01 -157.62c-16.76,-9.68 -14.66,-26.58 4.68,-37.75l263.61 -152.21c19.36,-11.15 48.63,-12.38 65.37,-2.71l272.99 157.62c16.76,9.67 14.67,26.58 -4.67,37.75l-263.62 152.19c-19.35,11.17 -48.61,12.39 -65.37,2.72l0.02 0.01z">
        </path>
        <path class="fil1"
            d="M2651.09 1856.49l0 0 0 -112.4 -252.05 -0.15 -87.13 -50.31c-19.99,-11.54 -54.91,-10.08 -78.01,3.25l-81.27 46.93 -252.29 -0.13 0 115.59c-0.56,7.82 3.79,15.36 13.39,20.9l325.78 188.09c19.99,11.56 54.92,10.1 78.02,-3.23l314.56 -181.61c13.33,-7.69 19.73,-17.64 18.98,-26.93l0.02 0z">
        </path>
        <path class="fil1"
            d="M2275.72 1685.91c-14.62,0.37 -29.83,4.04 -41.82,10.97l-81.27 46.93 -252.28 -0.13 0 115.59c-0.56,7.82 3.79,15.36 13.39,20.9l325.78 188.09c9.62,5.54 22.67,8.07 36.19,7.74l0 -390.1 0.01 0.01z">
        </path>
        <path class="fil2"
            d="M1928.89 1743.69l-28.54 -0.01 0 115.59c-0.56,7.82 3.79,15.36 13.39,20.9l15.13 8.77 0 -145.25 0.02 0z">
        </path>
        <path class="fil2" d="M2244.55 2070.73c17.23,7.39 42.19,6.98 62.36,-0.72l0 -131.25 -62.36 0 0 131.97z"></path>
        <path class="fil3"
            d="M2239.54 1953.09l-325.79 -188.09c-20,-11.55 -17.49,-31.71 5.59,-45.04l314.56 -181.61c23.1,-13.34 58.02,-14.79 78.02,-3.23l325.78 188.09c19.99,11.54 17.48,31.71 -5.58,45.02l-314.57 181.62c-23.09,13.34 -58,14.78 -78.01,3.24z">
        </path>
        <path class="fil2"
            d="M2245.4 1919.24l-273.01 -157.63c-16.76,-9.66 -14.66,-26.57 4.68,-37.75l263.61 -152.21c19.36,-11.15 48.63,-12.38 65.37,-2.71l272.99 157.62c16.76,9.69 14.67,26.58 -4.67,37.75l-263.62 152.19c-19.35,11.17 -48.61,12.39 -65.37,2.72l0.02 0.02z">
        </path>
        <path class="fil1"
            d="M2651.09 1676.86l0 0 0 -112.4 -252.05 -0.14 -87.13 -50.31c-19.99,-11.55 -54.91,-10.09 -78.01,3.24l-81.27 46.92 -252.29 -0.13 0 115.61c-0.56,7.82 3.79,15.36 13.39,20.9l325.78 188.08c19.99,11.56 54.92,10.1 78.02,-3.23l314.56 -181.61c13.33,-7.7 19.73,-17.65 18.98,-26.93l0.02 0z">
        </path>
        <path class="fil1"
            d="M2275.72 1506.28c-14.62,0.37 -29.83,4.04 -41.82,10.97l-81.27 46.93 -252.28 -0.13 0 115.61c-0.56,7.82 3.79,15.36 13.39,20.9l325.78 188.08c9.62,5.54 22.67,8.07 36.19,7.74l0 -390.1 0.01 0z">
        </path>
        <path class="fil2"
            d="M1928.89 1564.06l-28.54 -0.03 0 115.61c-0.56,7.82 3.79,15.36 13.39,20.9l15.13 8.75 0 -145.23 0.02 0z">
        </path>
        <path class="fil2" d="M2244.55 1891.09c17.23,7.41 42.19,6.98 62.36,-0.71l0 -131.25 -62.36 0 0 131.97 0 -0.01z">
        </path>
        <path class="fil3"
            d="M2239.54 1773.44l-325.79 -188.09c-20,-11.54 -17.49,-31.71 5.59,-45.02l314.56 -181.6c23.1,-13.34 58.02,-14.79 78.02,-3.23l325.78 188.07c19.99,11.54 17.48,31.72 -5.58,45.04l-314.57 181.61c-23.09,13.33 -58,14.77 -78.01,3.23l0 -0.01z">
        </path>
        <path class="fil4"
            d="M2632.11 1566.46l-314.57 181.63c-23.09,13.33 -58,14.79 -78.01,3.23l-325.79 -188.09c-4.47,-2.58 -7.73,-5.59 -9.98,-8.85 -6.86,11.05 -3.75,23.05 9.98,30.97l325.79 188.09c19.99,11.54 54.91,10.1 78.01,-3.23l314.57 -181.61c17.93,-10.37 23.37,-24.83 15.56,-36.19 -3.13,5.05 -8.34,9.9 -15.56,14.06l0 -0.01z">
        </path>
        <path class="fil2"
            d="M2258.79 1656.82l-152.45 -88.02c-9.36,-5.39 -8.17,-14.83 2.62,-21.08l147.22 -84.98c10.8,-6.25 27.13,-6.91 36.49,-1.51l152.45 88c9.36,5.4 8.17,14.85 -2.62,21.08l-147.2 84.98c-10.8,6.25 -27.15,6.92 -36.49,1.51l-0.02 0.02z">
        </path>
        <path class="fil3"
            d="M2273.39 1583.13l-21.1 -12.17c-1.29,-0.75 -1.13,-2.04 0.36,-2.91l20.37 -11.75c1.5,-0.85 3.76,-0.96 5.06,-0.21l21.1 12.17c1.29,0.75 1.11,2.05 -0.36,2.9l-20.37 11.76c-1.5,0.85 -3.76,0.96 -5.05,0.21l-0.01 0z">
        </path>
        <path class="fil1"
            d="M2106.34 1568.81l0.43 0.27 2.17 -1.52 147.22 -84.98c10.81,-6.25 27.14,-6.9 36.5,-1.51l152 87.75c8.62,-6.17 9.07,-14.57 0.43,-19.56l-152.45 -88.03c-9.36,-5.39 -25.71,-4.73 -36.5,1.52l-147.21 84.98c-10.79,6.23 -11.98,15.67 -2.6,21.07l0.01 0.01z">
        </path>
        <path class="fil1"
            d="M2120.45 2528.75l0 -1312.69 -521.86 -136.59 -96.13 -55.5c-22.05,-12.75 -60.6,-11.14 -86.07,3.57l-89.67 51.78 -278.34 -0.15 -0.14 1294.29c0,11.36 -1.73,8.59 8.41,14.96 71.26,44.79 572.45,330.45 634.73,365.83 22.06,12.75 35.59,2.9 61.07,-11.81l347.07 -183.99c14.7,-8.48 21.78,-19.46 20.98,-29.7l-0.05 0z">
        </path>
        <path class="fil2"
            d="M1671.88 2765.12c19.02,8.16 46.55,7.7 68.79,-0.78l0.02 -1333.52 -68.79 0 0 1334.3 -0.02 0z"></path>
        <path class="fil3"
            d="M1666.34 1446.63l-603.2 -343.95c-22.04,-12.75 -19.28,-34.99 6.18,-49.69l347.06 -200.36c25.48,-14.72 64.02,-16.32 86.07,-3.58l603.21 343.94c22.06,12.75 19.3,35 -6.18,49.7l-347.07 200.36c-25.47,14.7 -64.02,16.32 -86.08,3.58l0.01 0z">
        </path>
        <path class="fil5"
            d="M2099.48 1218.28l-347.08 200.36c-25.47,14.71 -64.02,16.32 -86.08,3.59l-603.2 -343.96c-4.91,-2.84 -8.52,-6.16 -10.99,-9.78 -7.59,12.2 -4.15,25.43 10.99,34.17l603.2 343.95c22.06,12.75 60.61,11.13 86.08,-3.57l347.08 -200.36c19.8,-11.43 25.81,-27.38 17.19,-39.91 -3.46,5.56 -9.21,10.89 -17.19,15.51z">
        </path>
        <path class="fil6"
            d="M1683.41 1307.24l-401.6 -232.79c-10.33,-5.97 -9.04,-16.4 2.88,-23.26l162.41 -93.78c11.91,-6.88 29.96,-7.63 40.28,-1.67l401.6 232.8c10.31,5.95 9.03,16.34 -2.89,23.24l-162.42 93.77c-11.92,6.87 -29.96,7.62 -40.28,1.68l0.02 0.01z">
        </path>
        <path class="fil3"
            d="M1466.59 1084.9l-23.27 -13.46c-1.43,-0.81 -1.26,-2.26 0.41,-3.2l22.46 -12.99c1.65,-0.96 4.15,-1.05 5.56,-0.23l23.28 13.42c1.42,0.82 1.24,2.28 -0.39,3.22l-22.48 12.97c-1.64,0.95 -4.14,1.07 -5.57,0.23l0 0.04z">
        </path>
        <path class="fil3"
            d="M1544.34 1129.62l-23.27 -13.46c-1.41,-0.82 -1.25,-2.26 0.41,-3.21l22.46 -12.99c1.67,-0.94 4.15,-1.05 5.57,-0.23l23.27 13.46c1.42,0.81 1.25,2.26 -0.39,3.21l-22.48 12.97c-1.64,0.96 -4.14,1.06 -5.57,0.23l0 0.02z">
        </path>
        <path class="fil3"
            d="M1622.1 1174.31l-23.27 -13.43c-1.43,-0.82 -1.26,-2.27 0.39,-3.22l22.47 -12.97c1.67,-0.96 4.16,-1.06 5.57,-0.23l23.27 13.45c1.44,0.82 1.25,2.27 -0.39,3.22l-22.47 12.98c-1.66,0.94 -4.14,1.06 -5.57,0.23l0 -0.03z">
        </path>
        <path class="fil3"
            d="M1699.84 1219l-23.27 -13.42c-1.42,-0.82 -1.25,-2.28 0.39,-3.22l22.48 -12.98c1.64,-0.96 4.14,-1.07 5.55,-0.23l23.27 13.44c1.42,0.82 1.25,2.26 -0.4,3.2l-22.47 12.98c-1.65,0.96 -4.14,1.06 -5.55,0.22l0 0.01z">
        </path>
        <path class="fil2"
            d="M1281.81 1074.45l0.47 0.26c0.78,-0.56 1.5,-1.13 2.41,-1.67l162.41 -93.77c11.92,-6.87 29.96,-7.62 40.28,-1.67l401.12 232.51c9.51,-6.81 10.01,-16.08 0.49,-21.58l-401.6 -232.8c-10.34,-5.96 -28.36,-5.22 -40.28,1.67l-162.41 93.77c-11.92,6.88 -13.21,17.3 -2.88,23.25l-0.01 0.03z">
        </path>
        <path class="fil6"
            d="M1820.17 1706.71l228.34 -130.73c12.85,-7.42 23.27,-27.33 23.27,-44.45l0 -81.67c0,-17.14 -10.42,-25 -23.27,-17.6l-228.34 130.74c-12.85,7.43 -23.25,27.33 -23.25,44.47l0 81.65c0,17.15 10.4,25.01 23.25,17.59z">
        </path>
        <path class="fil4"
            d="M2059.81 1429.81c3.61,3.38 5.84,9.16 5.84,17l0 81.67c0,17.13 -10.41,37.03 -23.27,44.45l-228.34 130.74c-4.12,2.4 -7.94,3.02 -11.3,2.45 4.26,4.03 10.45,4.63 17.43,0.62l228.34 -130.74c12.85,-7.43 23.27,-27.33 23.27,-44.45l0 -81.67c0,-11.63 -4.85,-18.83 -11.97,-20.05l0 -0.02z">
        </path>
        <path class="fil1"
            d="M1888.85 1618.01l20.95 -12.1c2.81,-1.61 5.07,-5.95 5.07,-9.68l0 -22.37c0,-3.74 -2.26,-5.44 -5.07,-3.83l-20.95 12.09c-2.81,1.63 -5.07,5.96 -5.07,9.7l0 22.37c0,3.74 2.26,5.44 5.07,3.84l0 -0.02z">
        </path>
        <path class="fil6"
            d="M1820.17 2296.77l228.34 -130.74c12.85,-7.42 23.27,-27.33 23.27,-44.45l0 -81.65c0,-17.15 -10.42,-25.02 -23.27,-17.6l-228.34 130.74c-12.85,7.42 -23.25,27.33 -23.25,44.46l0 81.64c0,17.15 10.4,25.02 23.25,17.6z">
        </path>
        <path class="fil4"
            d="M2059.81 2019.88c3.61,3.38 5.84,9.15 5.84,16.98l0 81.66c0,17.14 -10.41,37.05 -23.27,44.46l-228.34 130.74c-4.12,2.39 -7.94,3.04 -11.3,2.46 4.26,4.03 10.45,4.63 17.43,0.62l228.34 -130.74c12.85,-7.43 23.27,-27.33 23.27,-44.45l0 -81.66c0,-11.64 -4.85,-18.84 -11.97,-20.05l0 -0.02z">
        </path>
        <path class="fil1"
            d="M1888.85 2208.07l20.95 -12.1c2.81,-1.6 5.07,-5.96 5.07,-9.69l0 -22.37c0,-3.73 -2.26,-5.44 -5.07,-3.82l-20.95 12.1c-2.81,1.62 -5.07,5.96 -5.07,9.68l0 22.38c0,3.73 2.26,5.45 5.07,3.82z">
        </path>
        <path class="fil1"
            d="M1958.89 2167.63l20.95 -12.1c2.8,-1.6 5.07,-5.96 5.07,-9.69l0 -22.37c0,-3.74 -2.27,-5.44 -5.07,-3.82l-20.95 12.07c-2.81,1.63 -5.08,5.96 -5.08,9.7l0 22.37c0,3.74 2.28,5.44 5.08,3.82l0 0.02z">
        </path>
        <path class="fil6"
            d="M1820.17 2591.79l228.34 -130.74c12.85,-7.42 23.27,-27.33 23.27,-44.45l0 -81.65c0,-17.15 -10.42,-25 -23.27,-17.6l-228.34 130.74c-12.85,7.42 -23.25,27.33 -23.25,44.46l0 81.64c0,17.15 10.4,25.02 23.25,17.6z">
        </path>
        <path class="fil4"
            d="M2059.81 2314.9c3.61,3.38 5.84,9.16 5.84,16.98l0 81.67c0,17.14 -10.41,37.03 -23.27,44.45l-228.34 130.74c-4.12,2.38 -7.94,3.02 -11.3,2.45 4.26,4.03 10.45,4.63 17.43,0.62l228.34 -130.74c12.85,-7.43 23.27,-27.33 23.27,-44.45l0 -81.66c0,-11.62 -4.85,-18.84 -11.97,-20.05l0 -0.01z">
        </path>
        <path class="fil4"
            d="M1888.85 2503.08l20.95 -12.1c2.81,-1.61 5.07,-5.95 5.07,-9.68l0 -22.37c0,-3.74 -2.26,-5.46 -5.07,-3.86l-20.95 12.1c-2.81,1.62 -5.07,5.97 -5.07,9.7l0 22.36c0,3.75 2.26,5.44 5.07,3.82l0 0.03z">
        </path>
        <path class="fil1"
            d="M1958.89 2462.66l20.95 -12.1c2.8,-1.61 5.07,-5.95 5.07,-9.68l0 -22.37c0,-3.74 -2.27,-5.44 -5.07,-3.82l-20.95 12.09c-2.81,1.61 -5.08,5.96 -5.08,9.69l0 22.37c0,3.74 2.28,5.47 5.08,3.84l0 -0.02z">
        </path>
        <path class="fil6"
            d="M1820.17 2001.74l228.34 -130.74c12.85,-7.42 23.27,-27.33 23.27,-44.44l0 -81.66c0,-17.14 -10.42,-25.02 -23.27,-17.6l-228.34 130.74c-12.85,7.43 -23.25,27.31 -23.25,44.45l0 81.65c0,17.15 10.4,25.01 23.25,17.6z">
        </path>
        <path class="fil4"
            d="M2059.81 1724.85c3.61,3.38 5.84,9.16 5.84,16.99l0 81.66c0,17.14 -10.41,37.05 -23.27,44.46l-228.34 130.74c-4.12,2.39 -7.94,3.04 -11.3,2.46 4.26,4.03 10.45,4.63 17.43,0.61l228.34 -130.74c12.85,-7.42 23.27,-27.33 23.27,-44.44l0 -81.68c0,-11.62 -4.85,-18.82 -11.97,-20.05l0 -0.01z">
        </path>
        <path class="fil2"
            d="M1622.4 1623.11l-526.77 -304.14c-11.81,-6.81 -21.36,-25.08 -21.36,-40.79l0 -100.44c0,-15.73 9.55,-22.95 21.36,-16.14l526.79 304.14c11.8,6.81 21.36,25.07 21.36,40.79l0 100.44c0,15.71 -9.56,22.95 -21.36,16.14l-0.02 0z">
        </path>
        <path class="fil7"
            d="M1611.57 1589.2c-1.31,0 -2.76,-0.41 -4.3,-1.29l-496.54 -286.67c-5.98,-3.44 -10.83,-12.72 -10.83,-20.7l0 -75.53c0,-5.94 2.69,-9.49 6.53,-9.49 1.32,0 2.76,0.41 4.31,1.3l496.54 286.68c5.97,3.45 10.83,12.71 10.83,20.7l0 75.51c0,5.94 -2.69,9.5 -6.54,9.5l0 -0.01z">
        </path>
        <path class="fil6"
            d="M1277.37 1345.22c0,7.76 -5.44,10.89 -12.15,7.01 -6.71,-3.87 -12.15,-13.29 -12.15,-21.02 0,-7.74 5.44,-10.87 12.15,-7.01 6.71,3.87 12.15,13.29 12.15,21.02z">
        </path>
        <path class="fil6"
            d="M1320.22 1369.96c0,7.74 -5.44,10.88 -12.15,7.01 -6.72,-3.88 -12.15,-13.29 -12.15,-21.05 0.01,-7.73 5.43,-10.86 12.15,-7.01 6.7,3.89 12.14,13.29 12.15,21.04l0 0.01z">
        </path>
        <path class="fil3"
            d="M1363.07 1394.69c0,7.74 -5.44,10.89 -12.15,7.03 -6.71,-3.89 -12.15,-13.31 -12.15,-21.04 0,-7.74 5.44,-10.87 12.15,-7.01 6.7,3.87 12.15,13.29 12.15,21.02z">
        </path>
        <path class="fil6"
            d="M1405.92 1419.44c0,7.74 -5.44,10.87 -12.16,7.01 -6.7,-3.89 -12.14,-13.31 -12.14,-21.03 0.01,-7.73 5.44,-10.88 12.14,-7.01 6.72,3.87 12.16,13.28 12.16,21.03z">
        </path>
        <path class="fil6"
            d="M1586.39 1545.85l-24.97 -14.42c-3.72,-2.14 -6.74,-7.92 -6.74,-12.89l0 -26.42c0,-4.96 3.02,-7.25 6.74,-5.1l24.97 14.42c3.73,2.15 6.76,7.92 6.76,12.9l0 26.4c0,4.97 -3.03,7.26 -6.76,5.11z">
        </path>
        <path class="fil2"
            d="M1622.4 1800.25l-526.77 -304.14c-11.81,-6.81 -21.36,-25.08 -21.36,-40.79l0 -100.44c0,-15.72 9.55,-22.94 21.36,-16.13l526.79 304.14c11.8,6.81 21.36,25.06 21.36,40.79l0 100.44c0,15.71 -9.56,22.94 -21.36,16.13l-0.02 0z">
        </path>
        <path class="fil7"
            d="M1611.57 1766.33c-1.31,0 -2.76,-0.41 -4.3,-1.31l-496.54 -286.68c-5.98,-3.46 -10.83,-12.72 -10.83,-20.7l0 -75.52c0,-5.94 2.69,-9.48 6.53,-9.48 1.32,0 2.76,0.41 4.31,1.29l496.54 286.67c5.97,3.46 10.83,12.72 10.83,20.7l0 75.53c0,5.94 -2.69,9.5 -6.54,9.5z">
        </path>
        <path class="fil6"
            d="M1320.22 1547.1c0,7.74 -5.44,10.87 -12.15,7.01 -6.72,-3.89 -12.15,-13.29 -12.15,-21.04 0.01,-7.74 5.43,-10.87 12.15,-7 6.7,3.88 12.14,13.29 12.15,21.03z">
        </path>
        <path class="fil3"
            d="M1363.07 1571.82c0,7.74 -5.44,10.89 -12.15,7.01 -6.71,-3.88 -12.15,-13.29 -12.15,-21.02 0,-7.74 5.44,-10.87 12.15,-7.01 6.7,3.87 12.15,13.31 12.15,21.04l0 -0.02zm-85.7 -49.48c0,7.76 -5.44,10.9 -12.15,7.01 -6.71,-3.86 -12.15,-13.29 -12.15,-21.01 0,-7.75 5.44,-10.88 12.15,-7.01 6.71,3.86 12.15,13.29 12.15,21.01z">
        </path>
        <path class="fil6"
            d="M1405.92 1596.55c0,7.76 -5.44,10.89 -12.16,7.03 -6.7,-3.89 -12.14,-13.29 -12.14,-21.04 0.01,-7.73 5.44,-10.87 12.14,-7.01 6.72,3.87 12.16,13.29 12.16,21.02z">
        </path>
        <path class="fil6"
            d="M1586.39 1722.98l-24.97 -14.42c-3.72,-2.14 -6.74,-7.92 -6.74,-12.89l0 -26.42c0,-4.96 3.02,-7.26 6.74,-5.1l24.97 14.42c3.73,2.15 6.76,7.92 6.76,12.9l0 26.42c0,4.96 -3.03,7.26 -6.76,5.09z">
        </path>
        <path class="fil2"
            d="M1622.4 1977.38l-526.77 -304.14c-11.81,-6.81 -21.36,-25.08 -21.36,-40.79l0 -100.46c0,-15.71 9.55,-22.94 21.36,-16.14l526.79 304.15c11.8,6.81 21.36,25.07 21.36,40.78l0 100.44c0,15.72 -9.56,22.96 -21.36,16.13l-0.02 0.03z">
        </path>
        <path class="fil7"
            d="M1611.57 1943.47c-1.31,0 -2.76,-0.41 -4.3,-1.31l-496.54 -286.68c-5.98,-3.44 -10.83,-12.72 -10.83,-20.7l0 -75.51c0,-5.94 2.69,-9.49 6.53,-9.49 1.32,0 2.76,0.41 4.31,1.29l496.54 286.69c5.97,3.45 10.83,12.71 10.83,20.7l0 75.52c0,5.94 -2.69,9.5 -6.54,9.5l0 -0.01z">
        </path>
        <path class="fil4"
            d="M1277.37 1699.49c0,7.76 -5.44,10.89 -12.15,7.01 -6.71,-3.87 -12.15,-13.29 -12.15,-21.02 0,-7.74 5.44,-10.89 12.15,-7.01 6.71,3.89 12.15,13.31 12.15,21.04l0 -0.02zm85.7 49.48c0,7.74 -5.44,10.89 -12.15,7.01 -6.71,-3.89 -12.15,-13.29 -12.15,-21.02 0,-7.75 5.44,-10.88 12.15,-7.01 6.7,3.87 12.15,13.29 12.15,21.02z">
        </path>
        <path class="fil6"
            d="M1320.22 1724.23c0,7.74 -5.44,10.87 -12.15,7.01 -6.72,-3.89 -12.15,-13.31 -12.15,-21.04 0.01,-7.74 5.43,-10.87 12.15,-7 6.7,3.86 12.14,13.29 12.15,21.03z">
        </path>
        <path class="fil6"
            d="M1405.92 1773.69c0,7.76 -5.44,10.89 -12.16,7.02 -6.7,-3.88 -12.14,-13.29 -12.14,-21.03 0.01,-7.74 5.44,-10.88 12.14,-7.01 6.72,3.89 12.16,13.29 12.16,21.02z">
        </path>
        <path class="fil6"
            d="M1586.39 1900.11l-24.97 -14.41c-3.72,-2.14 -6.74,-7.9 -6.74,-12.89l0 -26.42c0,-4.97 3.02,-7.25 6.74,-5.1l24.97 14.42c3.73,2.14 6.76,7.92 6.76,12.9l0 26.4c0,4.96 -3.03,7.26 -6.76,5.1z">
        </path>
        <path class="fil2"
            d="M1622.4 2154.53l-526.77 -304.15c-11.81,-6.81 -21.36,-25.08 -21.36,-40.79l0 -100.45c0,-15.71 9.55,-22.95 21.36,-16.14l526.79 304.15c11.8,6.81 21.36,25.08 21.36,40.8l0 100.43c0,15.72 -9.56,22.94 -21.36,16.15l-0.02 0z">
        </path>
        <path class="fil7"
            d="M1611.57 2120.62c-1.31,0 -2.76,-0.41 -4.3,-1.31l-496.54 -286.68c-5.98,-3.46 -10.83,-12.72 -10.83,-20.7l0 -75.52c0,-5.94 2.69,-9.48 6.53,-9.48 1.32,0 2.76,0.41 4.31,1.29l496.54 286.68c5.97,3.46 10.83,12.72 10.83,20.7l0 75.52c0,5.95 -2.69,9.5 -6.54,9.5l0 0z">
        </path>
        <path class="fil6"
            d="M1277.37 1876.62c0,7.76 -5.44,10.88 -12.15,7.01 -6.71,-3.87 -12.15,-13.29 -12.15,-21.02 0,-7.74 5.44,-10.89 12.15,-7.01 6.71,3.89 12.15,13.29 12.15,21.04l0 -0.02z">
        </path>
        <path class="fil6"
            d="M1320.22 1901.36c0,7.74 -5.44,10.87 -12.15,7.01 -6.72,-3.89 -12.15,-13.31 -12.15,-21.04 0.01,-7.76 5.43,-10.89 12.15,-7 6.7,3.88 12.14,13.29 12.15,21.03z">
        </path>
        <path class="fil3"
            d="M1363.07 1926.1c0,7.74 -5.44,10.89 -12.15,7.01 -6.71,-3.87 -12.15,-13.29 -12.15,-21.04 0,-7.74 5.44,-10.89 12.15,-7.01 6.7,3.87 12.15,13.31 12.15,21.04z">
        </path>
        <path class="fil6"
            d="M1405.92 1950.84c0,7.75 -5.44,10.89 -12.16,7.02 -6.7,-3.88 -12.14,-13.31 -12.14,-21.03 0.01,-7.75 5.44,-10.88 12.14,-7.01 6.72,3.87 12.16,13.29 12.16,21.02z">
        </path>
        <path class="fil2"
            d="M1622.4 2331.66l-526.77 -304.15c-11.81,-6.81 -21.36,-25.08 -21.36,-40.79l0 -100.45c0,-15.71 9.55,-22.95 21.36,-16.13l526.79 304.15c11.8,6.8 21.36,25.08 21.36,40.79l0 100.44c0,15.72 -9.56,22.94 -21.36,16.13l-0.02 0.01z">
        </path>
        <path class="fil7"
            d="M1611.57 2297.75c-1.31,0 -2.76,-0.41 -4.3,-1.31l-496.54 -286.68c-5.98,-3.46 -10.83,-12.72 -10.83,-20.7l0 -75.52c0,-5.94 2.69,-9.48 6.53,-9.48 1.32,0 2.76,0.42 4.31,1.29l496.54 286.68c5.97,3.46 10.83,12.72 10.83,20.7l0 75.52c0,5.94 -2.69,9.5 -6.54,9.5z">
        </path>
        <path class="fil6"
            d="M1277.37 2053.77c0,7.74 -5.44,10.87 -12.15,7 -6.71,-3.86 -12.15,-13.29 -12.15,-21.03 0,-7.74 5.44,-10.89 12.15,-7.01 6.71,3.89 12.15,13.29 12.15,21.04z">
        </path>
        <path class="fil4"
            d="M1405.92 2127.98c0,7.74 -5.44,10.88 -12.16,7.01 -6.7,-3.88 -12.14,-13.31 -12.14,-21.03 0.01,-7.75 5.44,-10.88 12.14,-7.01 6.72,3.87 12.16,13.29 12.16,21.03zm-85.7 -49.48c0,7.75 -5.44,10.88 -12.15,7.01 -6.72,-3.88 -12.15,-13.3 -12.15,-21.03 0.01,-7.76 5.43,-10.89 12.15,-7.01 6.7,3.87 12.14,13.29 12.15,21.03zm42.85 24.74c0,7.75 -5.44,10.88 -12.15,7.01 -6.71,-3.87 -12.15,-13.29 -12.15,-21.03 0,-7.75 5.44,-10.89 12.15,-7.01 6.7,3.88 12.15,13.29 12.15,21.03z">
        </path>
        <path class="fil2"
            d="M1622.4 2508.8l-526.77 -304.14c-11.81,-6.81 -21.36,-25.08 -21.36,-40.79l0 -100.46c0,-15.71 9.55,-22.94 21.36,-16.13l526.79 304.14c11.8,6.81 21.36,25.08 21.36,40.79l0 100.44c0,15.73 -9.56,22.95 -21.36,16.15l-0.02 0z">
        </path>
        <path class="fil7"
            d="M1611.58 2474.88c-1.32,0 -2.77,-0.41 -4.31,-1.3l-496.54 -286.66c-5.98,-3.47 -10.83,-12.73 -10.83,-20.71l0 -75.51c0,-5.95 2.69,-9.5 6.53,-9.5 1.32,0 2.76,0.41 4.31,1.3l496.54 286.68c5.97,3.46 10.83,12.72 10.83,20.71l0 75.51c0,5.94 -2.69,9.48 -6.53,9.48l0 0z">
        </path>
        <path class="fil6"
            d="M1277.37 2230.9c0,7.74 -5.44,10.87 -12.15,7 -6.71,-3.88 -12.15,-13.29 -12.15,-21.03 0,-7.74 5.44,-10.89 12.15,-7.01 6.71,3.89 12.15,13.29 12.15,21.04z">
        </path>
        <path class="fil6"
            d="M1320.22 2255.63c0,7.75 -5.44,10.88 -12.15,7.01 -6.72,-3.87 -12.15,-13.29 -12.15,-21.02 0.01,-7.75 5.43,-10.89 12.15,-7 6.7,3.86 12.14,13.29 12.15,21.03l0 -0.02z">
        </path>
        <path class="fil3"
            d="M1363.07 2280.37c0,7.75 -5.44,10.88 -12.15,7.01 -6.71,-3.87 -12.15,-13.29 -12.15,-21.02 0,-7.74 5.44,-10.89 12.15,-7.01 6.7,3.89 12.15,13.29 12.15,21.04l0 -0.02z">
        </path>
        <path class="fil6"
            d="M1405.92 2305.11c0,7.74 -5.44,10.88 -12.16,7.01 -6.7,-3.88 -12.14,-13.31 -12.14,-21.03 0.01,-7.75 5.44,-10.88 12.14,-7.01 6.72,3.87 12.16,13.29 12.16,21.03z">
        </path>
        <path class="fil6"
            d="M1586.39 2431.53l-24.97 -14.41c-3.72,-2.16 -6.74,-7.93 -6.74,-12.9l0 -26.42c0,-4.96 3.02,-7.25 6.74,-5.1l24.97 14.41c3.73,2.16 6.76,7.93 6.76,12.9l0 26.4c0,4.97 -3.03,7.27 -6.76,5.1l0 0.02z">
        </path>
        <path class="fil2"
            d="M1622.4 2685.94l-526.77 -304.15c-11.81,-6.8 -21.36,-25.09 -21.36,-40.79l0 -100.45c0,-15.73 9.55,-22.94 21.36,-16.14l526.79 304.15c11.8,6.81 21.36,25.08 21.36,40.79l0 100.44c0,15.73 -9.56,22.94 -21.36,16.15l-0.02 0z">
        </path>
        <path class="fil7"
            d="M1611.58 2652.02c-1.32,-0.01 -2.77,-0.42 -4.31,-1.29l-496.54 -286.68c-5.98,-3.46 -10.83,-12.73 -10.83,-20.7l0 -75.52c0,-5.94 2.69,-9.5 6.53,-9.5 1.34,0 2.78,0.41 4.33,1.3l496.54 286.68c5.96,3.45 10.83,12.73 10.83,20.7l0 75.51c0,5.94 -2.7,9.5 -6.53,9.5l-0.02 0z">
        </path>
        <path class="fil6"
            d="M1320.22 2432.77c0,7.74 -5.44,10.88 -12.15,7.01 -6.72,-3.87 -12.15,-13.29 -12.15,-21.03 0.01,-7.75 5.43,-10.88 12.15,-7.01 6.7,3.87 12.14,13.29 12.15,21.03z">
        </path>
        <path class="fil6"
            d="M1405.92 2482.26c0,7.73 -5.44,10.87 -12.16,7 -6.7,-3.86 -12.14,-13.29 -12.14,-21.03 0.01,-7.74 5.44,-10.87 12.14,-7.01 6.72,3.89 12.16,13.29 12.16,21.04z">
        </path>
        <path class="fil2"
            d="M1469.19 1072.43c-4.39,0 -7.95,-3.55 -7.95,-7.95l0 -327.46c0,-4.4 3.56,-7.97 7.95,-7.97 4.4,0 7.94,3.57 7.94,7.97l0 327.46c0,4.4 -3.56,7.95 -7.94,7.95z">
        </path>
        <polygon class="fil2" points="1497.64,839.18 1440.73,839.18 1440.73,716.41 1497.64,716.41 "></polygon>
        <path class="fil2"
            d="M1489.28 850.79c-11.1,6.42 -29.11,6.42 -40.21,0 -11.11,-6.42 -11.12,-16.81 0,-23.22 11.1,-6.41 29.11,-6.41 40.21,0 11.12,6.41 11.12,16.82 0,23.22z">
        </path>
        <polygon class="fil2" points="1515.27,737.87 1423.09,737.87 1423.09,545.31 1515.27,545.31 "></polygon>
        <path class="fil1"
            d="M1440.73 736.61l0 41.54c16.71,7.63 40.21,7.63 56.91,0l0.01 -41.54c-16.7,-7.63 -40.2,-7.61 -56.9,0l-0.02 0z">
        </path>
        <path class="fil2"
            d="M1501.78 756.69c-18.01,10.39 -47.19,10.39 -65.2,0 -18.01,-10.39 -18.01,-27.25 -0.02,-37.65 18.03,-10.39 47.19,-10.39 65.21,0 18.01,10.39 18.01,27.24 0,37.65l0.01 0z">
        </path>
        <path class="fil2"
            d="M1546.92 1118.86c-4.38,0 -7.97,-3.56 -7.97,-7.96l0.02 -327.48c0,-4.37 3.56,-7.93 7.95,-7.93 4.39,0 7.97,3.56 7.97,7.93l0 327.48c0,4.4 -3.56,7.96 -7.97,7.96z">
        </path>
        <polygon class="fil2" points="1575.38,885.6 1518.49,885.6 1518.49,762.83 1575.38,762.83 "></polygon>
        <path class="fil2"
            d="M1567.04 897.21c-11.12,6.43 -29.13,6.43 -40.25,0 -11.11,-6.41 -11.11,-16.81 0,-23.22 11.12,-6.41 29.12,-6.41 40.25,0 11.1,6.42 11.1,16.82 0,23.22z">
        </path>
        <polygon class="fil2" points="1593.02,784.29 1500.84,784.29 1500.84,591.74 1593.02,591.74 "></polygon>
        <path class="fil1"
            d="M1518.49 783.03l0 41.54c16.69,7.63 40.19,7.63 56.91,0l0 -41.54c-16.71,-7.61 -40.21,-7.61 -56.91,0z">
        </path>
        <path class="fil2"
            d="M1579.53 803.1c-18.01,10.39 -47.21,10.39 -65.2,0 -18.01,-10.39 -18.01,-27.23 0,-37.63 17.99,-10.39 47.19,-10.39 65.2,0 17.99,10.39 17.99,27.24 0.01,37.63l-0.01 0z">
        </path>
        <path class="fil2"
            d="M1624.68 1165.28c-4.39,0 -7.97,-3.55 -7.97,-7.96l0.02 -327.48c0,-4.38 3.56,-7.94 7.93,-7.94 4.4,0 7.97,3.56 7.97,7.94l0 327.48c0,4.39 -3.57,7.96 -7.95,7.96z">
        </path>
        <polygon class="fil2" points="1653.11,932.03 1596.22,932.03 1596.22,809.27 1653.11,809.27 "></polygon>
        <path class="fil2"
            d="M1644.78 943.65c-11.1,6.41 -29.12,6.41 -40.22,0 -11.12,-6.41 -11.12,-16.82 0,-23.22 11.11,-6.41 29.12,-6.41 40.22,0 11.11,6.42 11.11,16.82 0,23.22z">
        </path>
        <polygon class="fil2" points="1670.77,830.71 1578.57,830.71 1578.57,638.16 1670.77,638.16 "></polygon>
        <path class="fil1"
            d="M1596.22 829.47l0 41.54c16.7,7.62 40.19,7.62 56.9,0.01l0 -41.54c-16.7,-7.63 -40.2,-7.63 -56.9,0l0 -0.01z">
        </path>
        <path class="fil2"
            d="M1657.27 849.54c-18.01,10.39 -47.19,10.38 -65.2,0 -18.01,-10.39 -18.01,-27.24 -0.01,-37.65 18.02,-10.39 47.2,-10.39 65.2,0 18.01,10.39 18.01,27.24 0,37.65l0.01 0z">
        </path>
        <path class="fil2"
            d="M1702.41 1211.7c-4.39,0 -7.93,-3.56 -7.93,-7.95l0 -327.47c0,-4.39 3.56,-7.95 7.93,-7.95 4.4,0 7.96,3.56 7.96,7.97l0 327.46c0,4.4 -3.56,7.95 -7.96,7.95l0 -0.01z">
        </path>
        <polygon class="fil2" points="1730.86,978.45 1673.99,978.45 1673.99,855.69 1730.86,855.69 "></polygon>
        <path class="fil2"
            d="M1722.53 990.07c-11.11,6.42 -29.11,6.42 -40.23,0 -11.1,-6.41 -11.11,-16.81 0,-23.22 11.12,-6.41 29.12,-6.41 40.23,0 11.12,6.42 11.1,16.82 0,23.22z">
        </path>
        <polygon class="fil2" points="1748.51,877.13 1656.32,877.13 1656.32,684.57 1748.51,684.57 "></polygon>
        <path class="fil1"
            d="M1673.99 875.89l0 41.54c16.7,7.63 40.18,7.63 56.88,0l0 -41.54c-16.7,-7.61 -40.2,-7.61 -56.88,0z"></path>
        <path class="fil2"
            d="M1735.02 895.96c-18.01,10.39 -47.19,10.39 -65.2,0 -18,-10.39 -18,-27.24 0,-37.65 18.01,-10.39 47.19,-10.38 65.2,0 17.99,10.39 17.99,27.24 0,37.65z">
        </path>
        <path class="fil2"
            d="M2098.11 667.17c-15.01,-8.68 -29.36,-13.75 -42.69,-15.84 -19.9,-104.55 -92.63,-215.54 -179.36,-265.62 -26.1,-15.07 -50.91,-23.1 -73.4,-24.84 -11.85,-126.71 -99.94,-270.7 -206.93,-332.46 -55.89,-32.26 -106.58,-36.08 -143.99,-16.33l0 -0.08 -0.01 0.01 0 -0.03 -1.81 1.06c-0.96,0.53 -1.89,1.08 -2.84,1.65l-116.32 68.71 0.01 0.01 38.65 30.52c-2.02,0.88 -3.99,1.85 -5.92,2.89l0.01 -0.07 -197.28 113.5 76.52 35.1 70.73 -21.9c7.68,102.3 78.9,220.12 165.65,270.21l567.15 404.99 17.46 117.98 122.27 -71.99c22.84,-12.94 37,-41.03 37,-81.1 0,-79.67 -55.93,-176.53 -124.91,-216.35l0.01 -0.02z">
        </path>
        <path class="fil3"
            d="M1984.93 489.77l-155.49 91.61 54.1 60.31 141.15 -83.33c-11.15,-23.9 -24.57,-47.02 -39.74,-68.59l-0.02 0zm-599.27 -393.62l86.83 50.12 158.99 -93.64c-11.63,-9.02 -23.53,-17.16 -35.73,-24.2 -19.24,-11.12 -37.85,-18.79 -55.57,-23.35l-154.51 91.07 -0.01 0z">
        </path>
        <path class="fil3"
            d="M1975.97 739.11c-15.04,-8.68 -29.36,-13.73 -42.69,-15.82 -19.87,-104.55 -92.62,-215.54 -179.35,-265.62 -26.09,-15.07 -50.89,-23.11 -73.39,-24.83 -11.84,-126.71 -99.95,-270.71 -206.93,-332.48 -115.04,-66.42 -208.31,-12.58 -208.31,120.28 0.01,4.5 0.13,9.05 0.34,13.63 -84.13,-39.02 -149.88,4.93 -149.88,104.6 0,106.08 74.49,235.07 166.36,288.11l693.85 400.6c68.98,39.84 124.9,7.54 124.9,-72.12 0,-79.65 -55.93,-176.51 -124.9,-216.36l0 0.01z">
        </path>
        <path class="fil4"
            d="M1265.64 234.25c-0.21,-4.57 -0.34,-9.11 -0.34,-13.63l0.01 -0.56c-46.48,-18.06 -86.43,-10.2 -111.49,18.8 27.24,-22.42 66.84,-25.47 111.82,-4.62l0 0.01z">
        </path>
        <path class="fil4"
            d="M1986.13 729.2c-15.01,-8.66 -29.36,-13.73 -42.69,-15.82 -19.9,-104.53 -92.62,-215.54 -179.37,-265.6 -26.07,-15.07 -50.9,-23.11 -73.39,-24.84 -11.85,-126.7 -99.94,-270.7 -206.94,-332.48 -71.68,-41.36 -134.88,-36.06 -172.36,5.96 38.19,-32.64 96.65,-33.89 162.21,3.95 106.99,61.77 195.08,205.77 206.93,332.46 22.51,1.72 47.31,9.78 73.4,24.84 86.72,50.06 159.48,161.09 179.35,265.62 13.34,2.09 27.66,7.14 42.68,15.82 68.99,39.82 124.9,136.68 124.9,216.35 0,28.72 -7.36,51.2 -19.92,66.44 18.72,-14.42 30.08,-40.56 30.08,-76.35 0.01,-79.66 -55.93,-176.53 -124.9,-216.37l0.02 0.02z">
        </path>
        <path class="fil1"
            d="M1250.97 265.88l52.16 24.2 -2.67 -57.43c-0.17,-4.05 -0.31,-8.04 -0.31,-12.02 0,-51.26 15.5,-88.44 43.59,-104.67 28.1,-16.21 68.02,-11.02 112.41,14.6 95.49,55.14 178.78,189.32 189.64,305.52l2.73 29.28 29.31 2.25c18.01,1.4 37.75,8.2 58.62,20.28 75.83,43.79 144.2,145.52 162.53,241.93l4.61 24.12 24.26 3.8c9.67,1.53 19.98,5.41 30.67,11.57 58.25,33.65 107.48,118.87 107.48,186.15 0,25.17 -6.98,43.65 -19.17,50.67 -12.16,7.03 -31.64,3.82 -53.44,-8.75l-693.84 -400.6c-80.71,-46.6 -148.92,-164.71 -148.92,-257.92 0.02,-36.58 10.79,-64.45 29.59,-76.45 7.74,-4.94 17.1,-7.41 27.65,-7.41 12.85,0 27.48,3.64 43.09,10.87l0.01 0.01z">
        </path>
        <path class="lightbeam"
            d="M1591.62 700.34l-86.65 -51.04c-4.39,-2.58 -7.97,-9.11 -7.94,-14.56l0.22 -78.81 -44.29 -26.09c-6.05,-3.54 -9.25,-13.08 -5.28,-15.64l93.61 -60.22 -0.01 0c4.05,-2.6 11.23,1.65 15.25,8.98l92.94 170.09c3.94,7.23 0.69,12.95 -5.34,9.39l-44.29 -26.08 -0.22 78.79c-0.01,5.46 -3.6,7.78 -8,5.19z">
        </path>
        <polygon id="myPolygon" class="fil4"
            points="1914.62,2476.39 1904,2476.39 1904,1883.28 1974.03,1842.83 1974.03,1550.87 1984.65,1550.87 1984.65,1848.97 1914.62,1889.4 ">
        </polygon>
        <circle id="movingCircle1" cx="15" cy="15" r="15" fill="yellow"></circle>
        <circle id="movingCircle2" cx="15" cy="15" r="15" fill="yellow"></circle>
        <circle id="movingCircle3" cx="15" cy="15" r="15" fill="yellow"></circle>
        <circle id="movingCircle4" cx="15" cy="15" r="15" fill="yellow"></circle>
        <circle id="movingCircle5" cx="15" cy="15" r="15" fill="yellow"></circle>
        <path class="fil1"
            d="M877.2 2351.59l0 0 0 -112.41 -252.05 -0.13 -87.12 -50.31c-19.99,-11.54 -54.92,-10.09 -78.02,3.24l-81.28 46.92 -252.29 -0.13 0 115.61c-0.57,7.8 3.79,15.36 13.39,20.89l325.77 188.1c19.99,11.54 54.91,10.1 78.01,-3.23l314.57 -181.61c13.32,-7.69 19.74,-17.65 18.99,-26.91l0.03 -0.03z">
        </path>
        <path class="fil1"
            d="M501.82 2181.02c-14.64,0.35 -29.82,4.04 -41.8,10.97l-81.28 46.92 -252.29 -0.13 0 115.61c-0.58,7.8 3.79,15.36 13.39,20.88l325.77 188.11c9.61,5.54 22.66,8.05 36.2,7.72l0 -390.08 0.01 0z">
        </path>
        <path class="fil2"
            d="M154.99 2238.77l-28.54 -0.02 0 115.61c-0.58,7.81 3.79,15.37 13.39,20.89l15.15 8.76 0 -145.24z"></path>
        <path class="fil2" d="M470.63 2565.81c17.24,7.39 42.2,6.98 62.35,-0.71l0.02 -131.26 -62.37 0 0 131.97z"></path>
        <path class="fil3"
            d="M465.62 2448.17l-325.77 -188.1c-19.99,-11.54 -17.49,-31.7 5.59,-45.02l314.58 -181.62c23.08,-13.32 58,-14.78 78,-3.22l325.78 188.09c19.99,11.56 17.49,31.71 -5.6,45.04l-314.56 181.62c-23.08,13.32 -58.01,14.78 -78.02,3.22l0 -0.01z">
        </path>
        <path class="fil2"
            d="M471.49 2414.31l-273.02 -157.62c-16.74,-9.67 -14.66,-26.58 4.71,-37.75l263.6 -152.18c19.35,-11.17 48.6,-12.38 65.37,-2.71l273.01 157.62c16.76,9.66 14.66,26.57 -4.69,37.74l-263.6 152.2c-19.37,11.17 -48.63,12.39 -65.37,2.7l-0.01 0z">
        </path>
        <path class="fil1"
            d="M877.2 2171.97l0 0 0 -112.43 -252.05 -0.13 -87.12 -50.3c-19.99,-11.54 -54.92,-10.1 -78.02,3.23l-81.28 46.93 -252.29 -0.13 0 115.61c-0.57,7.81 3.79,15.36 13.39,20.89l325.77 188.09c19.99,11.54 54.91,10.09 78.01,-3.24l314.57 -181.6c13.32,-7.69 19.74,-17.66 18.99,-26.92l0.03 0z">
        </path>
        <path class="fil1"
            d="M501.82 2001.37c-14.64,0.36 -29.82,4.05 -41.8,10.97l-81.28 46.93 -252.29 -0.13 0 115.61c-0.58,7.81 3.79,15.36 13.39,20.89l325.77 188.09c9.61,5.54 22.66,8.05 36.2,7.73l0 -390.08 0.01 -0.01z">
        </path>
        <path class="fil2"
            d="M154.99 2059.14l-28.54 -0.01 0 115.6c-0.58,7.81 3.79,15.37 13.39,20.89l15.15 8.75 0 -145.24 0 0.01z">
        </path>
        <path class="fil2" d="M470.63 2386.18c17.24,7.4 42.2,6.99 62.35,-0.7l0.02 -131.27 -62.37 0 0 131.97z"></path>
        <path class="fil3"
            d="M465.62 2268.54l-325.77 -188.09c-19.99,-11.55 -17.49,-31.71 5.59,-45.04l314.58 -181.61c23.08,-13.32 58,-14.78 78,-3.23l325.78 188.09c19.99,11.55 17.49,31.71 -5.6,45.03l-314.56 181.63c-23.08,13.32 -58.01,14.77 -78.02,3.23l0 -0.01z">
        </path>
        <path class="fil2"
            d="M471.49 2234.69l-273.02 -157.62c-16.74,-9.67 -14.66,-26.58 4.71,-37.75l263.6 -152.19c19.35,-11.17 48.6,-12.37 65.37,-2.7l273.01 157.62c16.76,9.67 14.66,26.56 -4.69,37.73l-263.6 152.2c-19.37,11.17 -48.63,12.39 -65.37,2.71l-0.01 0z">
        </path>
        <path class="fil1"
            d="M877.2 1992.32l0 0 0 -112.4 -252.05 -0.15 -87.12 -50.31c-19.99,-11.54 -54.92,-10.09 -78.02,3.24l-81.28 46.93 -252.29 -0.13 0 115.61c-0.57,7.8 3.79,15.36 13.39,20.88l325.77 188.09c19.99,11.55 54.91,10.1 78.01,-3.23l314.57 -181.61c13.32,-7.69 19.74,-17.65 18.99,-26.91l0.03 -0.01z">
        </path>
        <path class="fil1"
            d="M501.82 1821.73c-14.64,0.35 -29.82,4.04 -41.8,10.97l-81.28 46.93 -252.29 -0.13 0 115.61c-0.58,7.8 3.79,15.36 13.39,20.88l325.77 188.09c9.61,5.54 22.66,8.07 36.2,7.74l0 -390.08 0.01 -0.01z">
        </path>
        <path class="fil2"
            d="M154.99 1879.5l-28.54 -0.02 0 115.61c-0.58,7.81 3.79,15.36 13.39,20.89l15.15 8.76 0 -145.24z"></path>
        <path class="fil2" d="M470.63 2206.54c17.24,7.39 42.2,6.98 62.35,-0.71l0.02 -131.26 -62.37 0 0 131.97z"></path>
        <path class="fil3"
            d="M465.62 2088.91l-325.77 -188.09c-19.99,-11.54 -17.49,-31.73 5.59,-45.04l314.58 -181.62c23.08,-13.34 58,-14.78 78,-3.24l325.78 188.09c19.99,11.55 17.49,31.7 -5.6,45.02l-314.56 181.61c-23.08,13.34 -58.01,14.79 -78.02,3.25l0 0.02z">
        </path>
        <path class="fil4"
            d="M858.2 1881.93l-314.57 181.61c-23.08,13.33 -58,14.77 -78.02,3.23l-325.77 -188.09c-4.47,-2.58 -7.74,-5.59 -9.97,-8.85 -6.88,11.05 -3.76,23.05 9.97,30.97l325.77 188.09c19.99,11.54 54.92,10.09 78.02,-3.25l314.57 -181.61c17.93,-10.36 23.38,-24.83 15.58,-36.18 -3.14,5.04 -8.35,9.91 -15.58,14.07l0 0.01z">
        </path>
        <path class="fil2"
            d="M484.89 1972.29l-152.44 -88.03c-9.36,-5.39 -8.19,-14.83 2.61,-21.06l147.22 -84.99c10.8,-6.24 27.15,-6.91 36.49,-1.52l152.45 88.02c9.35,5.4 8.18,14.83 -2.62,21.08l-147.21 84.98c-10.81,6.25 -27.15,6.92 -36.5,1.53l0 -0.01z">
        </path>
        <path class="fil3"
            d="M499.49 1898.58l-21.1 -12.17c-1.29,-0.75 -1.14,-2.05 0.37,-2.91l20.36 -11.75c1.51,-0.85 3.76,-0.96 5.06,-0.21l21.1 12.17c1.29,0.75 1.13,2.04 -0.36,2.9l-20.37 11.76c-1.5,0.87 -3.75,0.97 -5.05,0.21l-0.01 0z">
        </path>
        <path class="fil1"
            d="M332.44 1884.26l0.42 0.25 2.19 -1.5 147.22 -84.98c10.81,-6.25 27.15,-6.93 36.5,-1.53l152.02 87.77c8.61,-6.16 9.06,-14.57 0.42,-19.55l-152.44 -88.02c-9.36,-5.41 -25.7,-4.72 -36.5,1.52l-147.22 84.99c-10.8,6.23 -11.98,15.67 -2.61,21.06l0 -0.01z">
        </path>
        <path class="fil1"
            d="M2336.45 3091.39l0 0 0 -112.41 -252.05 -0.13 -87.13 -50.3c-19.99,-11.56 -54.93,-10.1 -78.01,3.23l-81.27 46.92 -252.29 -0.13 0 115.61c-0.57,7.82 3.77,15.36 13.37,20.89l325.79 188.09c19.99,11.54 54.91,10.09 78,-3.23l314.57 -181.63c13.33,-7.69 19.75,-17.64 18.99,-26.91l0.03 0z">
        </path>
        <path class="fil1"
            d="M1961.06 2920.81c-14.64,0.36 -29.81,4.05 -41.8,10.97l-81.27 46.92 -252.29 -0.13 0 115.61c-0.57,7.82 3.77,15.36 13.37,20.89l325.79 188.09c9.61,5.54 22.66,8.05 36.2,7.73l0 -390.08z">
        </path>
        <path class="fil2"
            d="M1614.24 2978.58l-28.54 -0.01 0 115.6c-0.57,7.82 3.77,15.37 13.37,20.89l15.17 8.75 0 -145.23z"></path>
        <path class="fil2" d="M1929.87 3305.63c17.26,7.4 42.19,6.97 62.37,-0.7l0 -131.27 -62.37 0 0 131.99 0 -0.02z">
        </path>
        <path class="fil3"
            d="M1924.86 3187.98l-325.79 -188.1c-19.97,-11.54 -17.47,-31.72 5.62,-45.03l314.57 -181.61c23.07,-13.34 58,-14.79 78,-3.23l325.78 188.09c20.01,11.54 17.49,31.7 -5.6,45.03l-314.57 181.61c-23.07,13.34 -58,14.79 -78,3.25l-0.01 -0.01z">
        </path>
        <path class="fil2"
            d="M1930.72 3154.11l-273.01 -157.62c-16.76,-9.67 -14.66,-26.57 4.69,-37.74l263.6 -152.19c19.37,-11.17 48.61,-12.4 65.39,-2.73l273.01 157.62c16.74,9.67 14.64,26.58 -4.7,37.75l-263.61 152.2c-19.35,11.16 -48.61,12.38 -65.37,2.71z">
        </path>
        <path class="fil1"
            d="M2336.45 2911.76l0 0 0 -112.41 -252.05 -0.13 -87.13 -50.3c-19.99,-11.56 -54.93,-10.1 -78.01,3.22l-81.27 46.93 -252.29 -0.15 0 115.61c-0.57,7.82 3.77,15.36 13.37,20.9l325.79 188.09c19.99,11.54 54.91,10.1 78,-3.22l314.57 -181.62c13.33,-7.69 19.75,-17.64 18.99,-26.91l0.03 -0.01z">
        </path>
        <path class="fil1"
            d="M1961.06 2741.17c-14.64,0.38 -29.81,4.06 -41.8,10.97l-81.27 46.94 -252.29 -0.15 0 115.61c-0.57,7.82 3.77,15.36 13.37,20.9l325.79 188.09c9.61,5.55 22.66,8.05 36.2,7.74l0 -390.1 0 0z">
        </path>
        <path class="fil2"
            d="M1614.24 2798.94l-28.54 -0.02 0 115.61c-0.57,7.82 3.77,15.36 13.37,20.9l15.17 8.75 0 -145.23 0 -0.01z">
        </path>
        <path class="fil2" d="M1929.87 3125.99c17.26,7.4 42.19,6.97 62.37,-0.7l0 -131.27 -62.37 0 0 131.99 0 -0.02z">
        </path>
        <path class="fil3"
            d="M1924.86 3008.35l-325.79 -188.09c-19.97,-11.55 -17.47,-31.73 5.62,-45.04l314.57 -181.61c23.07,-13.34 58,-14.79 78,-3.23l325.78 188.09c20.01,11.54 17.49,31.71 -5.6,45.03l-314.57 181.61c-23.07,13.34 -58,14.79 -78,3.25l-0.01 -0.01z">
        </path>
        <path class="fil2"
            d="M1930.72 2974.48l-273.01 -157.62c-16.76,-9.67 -14.66,-26.56 4.69,-37.73l263.6 -152.2c19.37,-11.17 48.61,-12.39 65.39,-2.73l273.01 157.63c16.74,9.66 14.64,26.57 -4.7,37.75l-263.61 152.19c-19.35,11.16 -48.61,12.38 -65.37,2.71z">
        </path>
        <path class="fil1"
            d="M2336.45 2732.12l0 0 0 -112.41 -252.05 -0.13 -87.13 -50.31c-19.99,-11.54 -54.93,-10.09 -78.01,3.22l-81.27 46.93 -252.29 -0.14 0 115.61c-0.57,7.82 3.77,15.36 13.37,20.9l325.79 188.09c19.99,11.54 54.91,10.09 78,-3.22l314.57 -181.62c13.33,-7.69 19.75,-17.64 18.99,-26.92l0.03 0z">
        </path>
        <path class="fil1"
            d="M1961.06 2561.53c-14.64,0.37 -29.81,4.05 -41.8,10.97l-81.27 46.93 -252.29 -0.15 0 115.61c-0.57,7.82 3.77,15.37 13.37,20.91l325.79 188.09c9.61,5.54 22.66,8.05 36.2,7.73l0 -390.1 0 0.01z">
        </path>
        <path class="fil2"
            d="M1614.24 2619.32l-28.54 -0.02 0 115.61c-0.57,7.82 3.77,15.36 13.37,20.9l15.17 8.75 0 -145.23 0 -0.01z">
        </path>
        <path class="fil2" d="M1929.87 2946.36c17.26,7.4 42.19,6.97 62.37,-0.7l0 -131.27 -62.37 0 0 131.99 0 -0.02z">
        </path>
        <path class="fil3"
            d="M1924.86 2828.7l-325.79 -188.09c-19.97,-11.54 -17.47,-31.71 5.62,-45.03l314.57 -181.63c23.07,-13.34 58,-14.77 78,-3.23l325.78 188.09c20.01,11.54 17.49,31.71 -5.6,45.04l-314.57 181.6c-23.07,13.34 -58,14.79 -78,3.25l-0.01 0z">
        </path>
        <path class="fil4"
            d="M2317.44 2621.72l-314.57 181.61c-23.07,13.34 -58,14.78 -78,3.23l-325.78 -188.1c-4.46,-2.58 -7.74,-5.59 -9.96,-8.84 -6.87,11.04 -3.76,23.04 9.96,30.98l325.78 188.09c19.99,11.54 54.92,10.08 78,-3.25l314.57 -181.61c17.95,-10.37 23.4,-24.83 15.57,-36.19 -3.14,5.06 -8.34,9.9 -15.57,14.07l0 0.01z">
        </path>
        <path class="fil2"
            d="M1944.13 2712.1l-152.45 -88.03c-9.35,-5.39 -8.18,-14.83 2.62,-21.06l147.21 -84.99c10.81,-6.25 27.16,-6.91 36.5,-1.52l152.45 88.03c9.36,5.39 8.18,14.82 -2.62,21.06l-147.21 84.99c-10.81,6.24 -27.16,6.91 -36.5,1.52z">
        </path>
        <path class="fil3"
            d="M1958.73 2638.39l-21.11 -12.17c-1.28,-0.75 -1.13,-2.04 0.37,-2.9l20.37 -11.76c1.5,-0.87 3.75,-0.97 5.05,-0.23l21.09 12.19c1.29,0.73 1.15,2.04 -0.37,2.89l-20.36 11.77c-1.5,0.85 -3.76,0.95 -5.04,0.21z">
        </path>
        <path class="fil1"
            d="M1791.68 2624.06l0.43 0.25 2.19 -1.52 147.21 -84.98c10.81,-6.25 27.16,-6.92 36.5,-1.53l152.02 87.79c8.63,-6.18 9.07,-14.6 0.43,-19.57l-152.45 -88.02c-9.35,-5.39 -25.7,-4.74 -36.5,1.51l-147.2 85c-10.8,6.23 -11.96,15.67 -2.61,21.06l-0.02 0.01z">
        </path>
        <path class="circles-left"
            d="M1460.44 817.89c0,5.67 -3.96,7.94 -8.86,5.12 -4.88,-2.84 -8.87,-9.7 -8.87,-15.34 0,-5.66 3.97,-7.93 8.87,-5.11 4.9,2.83 8.86,9.69 8.86,15.33zm234.01 141.9c0,5.66 -3.97,7.93 -8.87,5.11 -4.9,-2.82 -8.86,-9.68 -8.86,-15.33 0,-5.66 3.96,-7.94 8.86,-5.11 4.9,2.82 8.87,9.68 8.87,15.33zm-78.02 -47.31c0,5.67 -3.97,7.94 -8.86,5.12 -4.88,-2.83 -8.85,-9.69 -8.85,-15.33 0.01,-5.67 3.95,-7.94 8.85,-5.12 4.89,2.83 8.86,9.69 8.86,15.33zm-77.97 -47.28c0,5.66 -3.97,7.93 -8.87,5.11 -4.89,-2.84 -8.86,-9.7 -8.86,-15.33 0,-5.66 3.97,-7.94 8.86,-5.12 4.9,2.83 8.87,9.69 8.87,15.34z">
        </path>
        <path class="fil3"
            d="M1514.82 912.27c0,4.39 -3.58,7.97 -7.97,7.97 -4.39,0 -7.97,-3.58 -7.97,-7.97 0,-4.4 3.56,-7.97 7.97,-7.97 4.39,0 7.97,3.56 7.97,7.97z">
        </path>
        <path class="fil3"
            d="M1587.52 955.84c0,4.39 -3.57,7.96 -7.96,7.96 -4.4,0 -7.96,-3.57 -7.96,-7.96 0,-4.4 3.56,-7.97 7.96,-7.97 4.41,0 7.96,3.57 7.96,7.97z">
        </path>
        <path class="fil3"
            d="M1660.25 999.4c0,4.4 -3.57,7.97 -7.98,7.97 -4.38,0 -7.97,-3.57 -7.97,-7.97 0,-4.39 3.58,-7.97 7.97,-7.97 4.41,0 7.98,3.58 7.98,7.97z">
        </path>
        <path class="fil3"
            d="M1732.97 1041.27c0,4.38 -3.57,7.96 -7.97,7.96 -4.39,-0.01 -7.97,-3.58 -7.97,-7.96 0.02,-4.4 3.58,-7.97 7.97,-7.97 4.4,0 7.97,3.57 7.97,7.97z">
        </path>
        <path class="circles-left"
            d="M2216.62 3121.05c0,8.41 -5.9,18.59 -13.16,22.79 -7.28,4.2 -13.18,0.8 -13.18,-7.59 0,-8.4 5.9,-18.61 13.18,-22.78 7.28,-4.2 13.16,-0.8 13.16,7.59l0 -0.01zm84.66 -408.15c0,8.38 -5.88,18.6 -13.16,22.78 -7.28,4.2 -13.17,0.8 -13.17,-7.59 0,-8.4 5.89,-18.6 13.17,-22.8 7.27,-4.19 13.16,-0.78 13.16,7.61zm-42.31 24.44c0,8.39 -5.91,18.61 -13.18,22.79 -7.28,4.21 -13.17,0.8 -13.17,-7.59 0,-8.39 5.89,-18.6 13.17,-22.8 7.28,-4.19 13.16,-0.8 13.18,7.6zm-42.35 24.44c0,8.41 -5.9,18.6 -13.16,22.8 -7.28,4.19 -13.18,0.8 -13.18,-7.6 0,-8.39 5.9,-18.61 13.18,-22.79 7.28,-4.2 13.16,-0.8 13.16,7.59zm84.66 130.77c0,8.37 -5.88,18.59 -13.16,22.78 -7.28,4.2 -13.17,0.79 -13.17,-7.6 0,-8.39 5.89,-18.6 13.17,-22.8 7.27,-4.19 13.16,-0.78 13.16,7.62zm-42.31 24.42c0,8.41 -5.91,18.62 -13.18,22.8 -7.28,4.2 -13.17,0.8 -13.17,-7.6 0,-8.39 5.89,-18.59 13.17,-22.78 7.28,-4.2 13.16,-0.81 13.18,7.59l0 -0.01zm-42.35 24.46c0,8.39 -5.9,18.59 -13.16,22.78 -7.28,4.19 -13.18,0.79 -13.18,-7.6 0,-8.39 5.9,-18.61 13.18,-22.8 7.28,-4.2 13.16,-0.79 13.16,7.6l0 0.02zm84.66 130.74c0,8.38 -5.88,18.6 -13.16,22.79 -7.28,4.2 -13.17,0.79 -13.17,-7.6 0,-8.39 5.89,-18.6 13.17,-22.78 7.27,-4.2 13.16,-0.8 13.16,7.59zm-42.31 24.45c0,8.39 -5.91,18.59 -13.18,22.78 -7.28,4.2 -13.17,0.8 -13.17,-7.6 0,-8.39 5.89,-18.59 13.17,-22.79 7.28,-4.2 13.16,-0.8 13.18,7.59l0 0.02z">
        </path>
        <path class="fil3"
            d="M2531.28 2065.8c0,8.4 -5.91,18.6 -13.18,22.78 -7.26,4.2 -13.16,0.8 -13.16,-7.59 0,-8.4 5.88,-18.6 13.16,-22.78 7.28,-4.2 13.18,-0.8 13.18,7.58l0 0.01zm84.66 -408.16c0,8.39 -5.89,18.6 -13.16,22.78 -7.27,4.2 -13.15,0.8 -13.15,-7.59 0,-8.39 5.88,-18.59 13.15,-22.79 7.28,-4.2 13.16,-0.8 13.16,7.59l0 0.01zm-42.33 24.44c0,8.4 -5.91,18.6 -13.18,22.79 -7.28,4.2 -13.16,0.79 -13.16,-7.59 0,-8.4 5.88,-18.61 13.16,-22.78 7.28,-4.2 13.18,-0.82 13.18,7.58zm-42.33 24.45c0,8.39 -5.91,18.61 -13.18,22.78 -7.26,4.19 -13.16,0.8 -13.16,-7.59 0,-8.41 5.88,-18.61 13.16,-22.79 7.28,-4.21 13.18,-0.8 13.18,7.58l0 0.02zm84.66 130.74c0,8.39 -5.89,18.6 -13.16,22.78 -7.27,4.2 -13.15,0.8 -13.15,-7.59 0,-8.39 5.88,-18.59 13.15,-22.78 7.28,-4.19 13.16,-0.81 13.16,7.59zm-42.33 24.44c0,8.4 -5.91,18.6 -13.18,22.78 -7.28,4.2 -13.16,0.8 -13.16,-7.58 0,-8.41 5.88,-18.62 13.16,-22.8 7.28,-4.2 13.18,-0.8 13.18,7.59l0 0.01zm-42.33 24.45c0,8.39 -5.91,18.59 -13.18,22.79 -7.26,4.2 -13.16,0.8 -13.16,-7.59 0,-8.38 5.88,-18.6 13.16,-22.78 7.28,-4.2 13.18,-0.8 13.18,7.59l0 -0.01zm84.66 130.75c0,8.4 -5.89,18.61 -13.16,22.78 -7.27,4.2 -13.15,0.8 -13.15,-7.58 0,-8.41 5.88,-18.62 13.15,-22.8 7.28,-4.19 13.16,-0.81 13.16,7.59l0 0.01zm-42.33 24.45c0,8.39 -5.91,18.59 -13.18,22.79 -7.28,4.2 -13.16,0.8 -13.16,-7.59 0,-8.4 5.88,-18.61 13.16,-22.78 7.28,-4.2 13.18,-0.8 13.18,7.59l0 -0.01z">
        </path>
        <path class="fil3"
            d="M757.36 2381.25c0,8.4 -5.89,18.6 -13.16,22.78 -7.26,4.2 -13.15,0.8 -13.15,-7.59 0.01,-8.38 5.88,-18.6 13.15,-22.78 7.27,-4.2 13.16,-0.8 13.16,7.59zm84.68 -408.14c0,8.37 -5.89,18.59 -13.15,22.78 -7.27,4.2 -13.16,0.79 -13.16,-7.6 0,-8.39 5.88,-18.6 13.16,-22.8 7.26,-4.19 13.15,-0.79 13.15,7.6l0 0.02zm-42.35 24.43c0,8.39 -5.88,18.59 -13.16,22.79 -7.26,4.19 -13.15,0.8 -13.15,-7.59 0,-8.41 5.87,-18.62 13.15,-22.8 7.27,-4.2 13.16,-0.8 13.16,7.6zm-42.33 24.44c0,8.41 -5.89,18.6 -13.16,22.8 -7.26,4.19 -13.15,0.79 -13.15,-7.62 0.01,-8.37 5.88,-18.59 13.15,-22.78 7.27,-4.19 13.16,-0.79 13.16,7.6zm84.68 130.75c0,8.4 -5.89,18.62 -13.15,22.8 -7.27,4.2 -13.16,0.8 -13.16,-7.59 0,-8.41 5.88,-18.62 13.16,-22.8 7.26,-4.2 13.15,-0.8 13.15,7.59zm-42.35 24.45c0,8.41 -5.88,18.6 -13.16,22.8 -7.26,4.19 -13.15,0.79 -13.15,-7.6 0,-8.38 5.87,-18.61 13.15,-22.8 7.27,-4.2 13.16,-0.79 13.16,7.6zm-42.33 24.43c0,8.39 -5.89,18.59 -13.16,22.8 -7.26,4.19 -13.15,0.78 -13.15,-7.62 0.01,-8.37 5.88,-18.59 13.15,-22.78 7.27,-4.19 13.16,-0.79 13.16,7.6zm84.68 130.75c0,8.41 -5.89,18.62 -13.15,22.8 -7.27,4.19 -13.16,0.8 -13.16,-7.6 0,-8.4 5.88,-18.61 13.16,-22.79 7.26,-4.2 13.15,-0.8 13.15,7.59zm-42.35 24.45c0,8.39 -5.88,18.59 -13.16,22.79 -7.26,4.2 -13.15,0.79 -13.15,-7.61 0,-8.36 5.87,-18.59 13.15,-22.78 7.27,-4.2 13.16,-0.8 13.16,7.6z">
        </path>
        <path class="fil4"
            d="M1969.58 1869.76l20.95 -12.1c2.8,-1.62 5.07,-5.96 5.07,-9.67l0 -22.39c0,-3.73 -2.27,-5.43 -5.07,-3.82l-20.95 12.1c-2.81,1.6 -5.08,5.96 -5.08,9.69l0 22.37c0,3.73 2.28,5.44 5.08,3.83l0 -0.01zm-71.16 43.27l20.95 -12.1c2.8,-1.61 5.07,-5.96 5.07,-9.68l0 -22.37c0,-3.74 -2.27,-5.44 -5.07,-3.82l-20.95 12.09c-2.81,1.6 -5.08,5.96 -5.08,9.69l0 22.37c0,3.74 2.27,5.45 5.08,3.82z">
        </path>
        <path class="fil4"
            d="M1968.06 1578.04l20.95 -12.1c2.81,-1.61 5.08,-5.95 5.08,-9.68l0 -22.36c0,-3.73 -2.27,-5.45 -5.08,-3.84l-20.95 12.1c-2.81,1.62 -5.08,5.96 -5.08,9.69l0 22.37c0,3.74 2.28,5.45 5.08,3.85l0 -0.03z">
        </path>
        <path class="fil3"
            d="M1363.07 2457.52c0,7.74 -5.44,10.87 -12.15,7.01 -6.71,-3.87 -12.15,-13.31 -12.15,-21.04 0,-7.74 5.44,-10.89 12.15,-7.01 6.7,3.89 12.15,13.29 12.15,21.04zm-85.7 -49.49c0,7.75 -5.44,10.88 -12.15,7.01 -6.71,-3.88 -12.15,-13.29 -12.15,-21.05 0,-7.73 5.44,-10.87 12.15,-7.01 6.71,3.89 12.15,13.29 12.15,21.04l0 0.01z">
        </path>
        <path class="fil3"
            d="M1214.22 2385.61l-74.1 -42.8c-5.81,-3.33 -10.53,-12.34 -10.53,-20.09 0.02,-7.75 4.71,-11.3 10.53,-7.96l74.1 42.78c5.82,3.35 10.53,12.35 10.53,20.12 0,7.74 -4.71,11.28 -10.53,7.95zm0 -1062.83l-74.1 -42.79c-5.81,-3.34 -10.53,-12.35 -10.53,-20.1 0.02,-7.73 4.71,-11.3 10.53,-7.94l74.1 42.8c5.82,3.35 10.53,12.34 10.53,20.09 0,7.75 -4.71,11.31 -10.53,7.96l0 -0.02zm0 354.28l-74.1 -42.78c-5.81,-3.35 -10.53,-12.35 -10.53,-20.1 0.02,-7.74 4.71,-11.32 10.53,-7.97l74.1 42.8c5.82,3.35 10.53,12.34 10.53,20.11 0,7.74 -4.71,11.3 -10.53,7.94zm0 354.27l-74.1 -42.78c-5.81,-3.35 -10.53,-12.36 -10.53,-20.11 0.02,-7.74 4.71,-11.3 10.53,-7.95l74.1 42.79c5.82,3.35 10.53,12.35 10.53,20.12 0,7.73 -4.71,11.3 -10.53,7.93z">
        </path>
        <path class="lightbeam"
            d="M1214.22 1499.91l-74.1 -42.79c-5.81,-3.35 -10.53,-12.35 -10.53,-20.1 0.02,-7.74 4.71,-11.3 10.53,-7.97l74.1 42.8c5.82,3.35 10.53,12.36 10.53,20.11 0,7.74 -4.71,11.3 -10.53,7.94l0 0.01zm0 708.55l-74.1 -42.78c-5.81,-3.35 -10.53,-12.36 -10.53,-20.11 0.02,-7.74 4.71,-11.3 10.53,-7.95l74.1 42.79c5.82,3.35 10.53,12.35 10.53,20.12 0,7.73 -4.71,11.28 -10.53,7.93zm0 -354.27l-74.1 -42.78c-5.81,-3.35 -10.53,-12.35 -10.53,-20.11 0.02,-7.75 4.71,-11.31 10.53,-7.96l74.1 42.8c5.82,3.35 10.53,12.34 10.53,20.11 0,7.74 -4.71,11.3 -10.53,7.94z">
        </path>
        <path class="fil3"
            d="M1586.39 2608.66l-24.97 -14.41c-3.72,-2.14 -6.74,-7.92 -6.74,-12.9l0 -26.42c0,-4.96 3.02,-7.25 6.74,-5.1l24.97 14.41c3.73,2.16 6.76,7.93 6.76,12.9l0 26.4c0,4.97 -3.03,7.27 -6.76,5.1l0 0.02zm0 -531.41l-24.97 -14.4c-3.72,-2.15 -6.74,-7.92 -6.74,-12.9l0 -26.42c0,-4.96 3.02,-7.24 6.74,-5.08l24.97 14.41c3.73,2.15 6.76,7.92 6.76,12.9l0 26.4c0,4.97 -3.03,7.26 -6.76,5.1l0 -0.01zm0 177.15l-24.97 -14.41c-3.72,-2.16 -6.74,-7.93 -6.74,-12.9l0 -26.42c0,-4.96 3.02,-7.25 6.74,-5.1l24.97 14.42c3.73,2.15 6.76,7.93 6.76,12.9l0 26.42c0,4.96 -3.03,7.26 -6.76,5.11l0 -0.02z">
        </path>
    </g>
</svg>